<svg width="28" height="28" viewBox="0 0 28 28" fill="none" xmlns="http://www.w3.org/2000/svg">
<g clip-path="url(#clip0_21_3)">
<path d="M6.43814 25.9631H18.5023C23.8771 23.7627 24.6456 18.3446 24.6893 13.2355C24.6919 12.9529 24.4612 12.7232 24.1786 12.7232H12.47H0.761812C0.479167 12.7232 0.248488 12.9529 0.251059 13.2355C0.294875 18.3446 1.06328 23.7628 6.43814 25.9631Z" fill="#696969"/>
<path d="M12.4701 9.16606C12.3387 9.16606 12.2068 9.11513 12.1075 9.01383C11.3213 8.21589 10.9297 7.38633 10.9429 6.54714C10.9556 5.73088 11.3513 4.94612 12.1187 4.21437C12.6926 3.6802 12.9849 3.13428 12.991 2.58889C12.9981 2.02568 12.7033 1.44874 12.1141 0.873819C11.913 0.676727 11.9094 0.354422 12.106 0.153774C12.3025 -0.0484049 12.6254 -0.0509212 12.826 0.144584C13.6214 0.922175 14.0197 1.74867 14.0094 2.60109C13.9998 3.43623 13.5985 4.22859 12.8168 4.95525C12.2587 5.4874 11.9695 6.03021 11.9608 6.56388C11.9521 7.11894 12.2455 7.703 12.8326 8.29985C13.0302 8.49995 13.0276 8.82231 12.8275 9.0199C12.7282 9.11716 12.5989 9.16606 12.4701 9.16606Z" fill="#696969"/>
<path d="M18.0597 9.16607C17.9283 9.16607 17.7964 9.11514 17.6971 9.01383C16.9109 8.21589 16.5193 7.38633 16.5325 6.54715C16.5452 5.73088 16.9409 4.94613 17.7083 4.21437C18.2863 3.67665 18.5801 3.12821 18.5867 2.57977C18.5933 2.01858 18.3005 1.4447 17.7159 0.87388C17.5148 0.676788 17.5107 0.354483 17.7073 0.153835C17.9038 -0.0483438 18.2267 -0.0508601 18.4273 0.144645C19.2192 0.918188 19.6153 1.74156 19.6052 2.59251C19.5955 3.42918 19.1922 4.2246 18.4064 4.95532C17.8483 5.48746 17.5591 6.03027 17.5504 6.56394C17.5417 7.119 17.8351 7.70306 18.4222 8.29991C18.6198 8.50001 18.6172 8.82237 18.4171 9.01996C18.3178 9.11716 18.1885 9.16607 18.0597 9.16607Z" fill="#696969"/>
<path d="M7.36588 9.16607C7.23448 9.16607 7.1026 9.11514 7.00331 9.01383C6.21708 8.21589 5.82547 7.38633 5.8387 6.54715C5.85145 5.73088 6.24711 4.94613 7.01453 4.21437C7.59251 3.67665 7.88631 3.12821 7.89293 2.57977C7.89955 2.01858 7.60673 1.4447 7.02213 0.87388C6.82099 0.676788 6.81689 0.354483 7.01349 0.153835C7.21003 -0.0483438 7.53288 -0.0508601 7.73353 0.144645C8.5254 0.918188 8.92155 1.74156 8.91138 2.59251C8.90169 3.42918 8.49838 4.2246 7.71263 4.95532C7.15451 5.48746 6.8653 6.03027 6.8566 6.56394C6.84796 7.119 7.14127 7.70306 7.72839 8.29991C7.92597 8.50001 7.9234 8.82237 7.7233 9.01996C7.62402 9.11716 7.4947 9.16607 7.36588 9.16607Z" fill="#696969"/>
<path d="M9.41522 24.9447C9.38722 24.9447 9.35817 24.9421 9.32967 24.9376C5.28844 24.2521 3.11813 21.9265 2.29366 17.3974C2.24377 17.1209 2.42659 16.8556 2.7036 16.8057C2.98264 16.7523 3.24542 16.9386 3.29581 17.2152C4.04183 21.3129 5.89744 23.3218 9.50023 23.9334C9.77724 23.9802 9.96361 24.2435 9.91679 24.5205C9.87456 24.769 9.65914 24.9447 9.41522 24.9447Z" fill="#444444"/>
<path d="M19.5972 16.2878C19.3161 16.2878 19.088 16.0602 19.088 15.7786V12.7334C19.088 12.4518 19.3162 12.2242 19.5972 12.2242C19.8783 12.2242 20.1064 12.4518 20.1064 12.7334V15.7786C20.1065 16.0602 19.8783 16.2878 19.5972 16.2878Z" fill="white"/>
<path d="M21.1206 19.8728H18.0652V15.799L19.5974 14.7703L21.1246 15.799L21.1206 19.8728Z" fill="white"/>
<path d="M24.6821 13.7446C24.621 17.0042 24.2131 20.3396 22.4655 22.8486C25.4501 22.4443 27.7492 19.8966 27.7492 16.8V15.4903C27.7492 14.5263 26.9675 13.7446 26.0035 13.7446H24.6821V13.7446Z" fill="#444444"/>
<path d="M7.8893 28H1.2693C0.706578 28 0.250854 27.5442 0.250854 26.9816C0.250854 26.4188 0.706633 25.9631 1.2693 25.9631H22.6569C23.2196 25.9631 23.6753 26.4189 23.6753 26.9816C23.6753 27.5443 23.2195 28 22.6569 28H16.5461L15.0185 27.4908H9.41696L7.8893 28Z" fill="#444444"/>
</g>
<defs>
<clipPath id="clip0_21_3">
<rect width="28" height="28" fill="white"/>
</clipPath>
</defs>
</svg>
