<svg width="20" height="20" viewBox="0 0 20 20" fill="none" xmlns="http://www.w3.org/2000/svg">
<path d="M8.75 17.5C9.44036 17.5 10 16.9404 10 16.25C10 15.5596 9.44036 15 8.75 15C8.05964 15 7.5 15.5596 7.5 16.25C7.5 16.9404 8.05964 17.5 8.75 17.5Z" fill="black"/>
<path d="M14.5833 17.5C15.2737 17.5 15.8333 16.9404 15.8333 16.25C15.8333 15.5596 15.2737 15 14.5833 15C13.893 15 13.3333 15.5596 13.3333 16.25C13.3333 16.9404 13.893 17.5 14.5833 17.5Z" fill="black"/>
<path d="M17.5 5.83333H6.11169L5.15002 3.525C5.02378 3.22095 4.81011 2.96123 4.5361 2.77875C4.26209 2.59627 3.94007 2.49925 3.61085 2.5H1.66669V4.16666H3.61169L7.56419 13.6542C7.69335 13.9642 7.99752 14.1667 8.33335 14.1667H15C15.3475 14.1667 15.6584 13.9508 15.7809 13.6267L18.2809 6.96C18.3277 6.83383 18.3434 6.69821 18.3265 6.56468C18.3097 6.43116 18.2609 6.30367 18.1842 6.19305C18.1076 6.08244 18.0053 5.99197 17.8862 5.92934C17.7671 5.86671 17.6346 5.83378 17.5 5.83333V5.83333ZM11.6667 12.5L9.16669 10H10.8334V7.5H12.5V10H14.1667L11.6667 12.5Z" fill="black"/>
</svg>
