<svg width="29" height="28" viewBox="0 0 29 28" fill="none" xmlns="http://www.w3.org/2000/svg">
<path fill-rule="evenodd" clip-rule="evenodd" d="M9.875 7C9.875 6.44772 10.3227 6 10.875 6L24.1667 6C24.719 6 25.1667 6.44771 25.1667 7C25.1667 7.55228 24.719 8 24.1667 8L10.875 8C10.3227 8 9.875 7.55228 9.875 7Z" fill="black"/>
<path fill-rule="evenodd" clip-rule="evenodd" d="M5.04169 14C5.04169 13.4477 5.4894 13 6.04169 13L24.1667 13C24.719 13 25.1667 13.4477 25.1667 14C25.1667 14.5523 24.719 15 24.1667 15L6.04169 15C5.4894 15 5.04169 14.5523 5.04169 14Z" fill="black"/>
<path fill-rule="evenodd" clip-rule="evenodd" d="M13.5 21C13.5 20.4477 13.9477 20 14.5 20L24.1667 20C24.7189 20 25.1667 20.4477 25.1667 21C25.1667 21.5523 24.7189 22 24.1667 22L14.5 22C13.9477 22 13.5 21.5523 13.5 21Z" fill="black"/>
</svg>
